<svg width="26" height="25" viewBox="0 0 26 25" fill="none" xmlns="http://www.w3.org/2000/svg">
<path d="M1.5 2L24 22.5" stroke="#212121" stroke-width="3" stroke-linecap="round"/>
<path d="M12.5 4.59375C7.5 4.59375 3.23 7.76854 1.5 12.25C3.23 16.7315 7.5 19.9063 12.5 19.9063C17.5 19.9063 21.77 16.7315 23.5 12.25C21.77 7.76854 17.5 4.59375 12.5 4.59375ZM12.5 17.3542C9.74 17.3542 7.5 15.0675 7.5 12.25C7.5 9.4325 9.74 7.14583 12.5 7.14583C15.26 7.14583 17.5 9.4325 17.5 12.25C17.5 15.0675 15.26 17.3542 12.5 17.3542ZM12.5 9.1875C10.84 9.1875 9.5 10.5554 9.5 12.25C9.5 13.9446 10.84 15.3125 12.5 15.3125C14.16 15.3125 15.5 13.9446 15.5 12.25C15.5 10.5554 14.16 9.1875 12.5 9.1875Z" fill="black" fill-opacity="0.87"/>
</svg>
