<svg width="64" height="24" viewBox="0 0 64 24" fill="none" xmlns="http://www.w3.org/2000/svg">
<g opacity="0.88">
<path d="M6.89507 13.3454V12.3799L10.7567 10.6795V11.7903L8.11281 12.8517L8.14846 12.7941V12.9312L8.11281 12.8736L10.7567 13.935V15.0458L6.89507 13.3454ZM14.2089 9.22861L12.3987 15.9536H11.3922L13.2023 9.22861H14.2089ZM18.7067 13.3454L14.845 15.0458V13.935L17.4889 12.8736L17.4533 12.9312V12.7941L17.4889 12.8517L14.845 11.7903V10.6795L18.7067 12.3799V13.3454Z" fill="white"/>
<path d="M4 18.9665V4.29346C4 4.13139 4.13139 4 4.29346 4H21.6076C21.7697 4 21.9011 4.13139 21.9011 4.29346V18.9665C21.9011 19.1286 21.7697 19.26 21.6076 19.26H4.29346C4.13139 19.26 4 19.1286 4 18.9665Z" stroke="white" stroke-width="1.17384"/>
<path d="M4 8.10889H21.6076" stroke="white" stroke-width="1.17384"/>
<circle cx="6.05396" cy="5.90748" r="0.733652" fill="white"/>
<circle cx="8.10865" cy="5.90748" r="0.733652" fill="white"/>
<circle cx="10.1633" cy="5.90748" r="0.733652" fill="white"/>
<rect x="28.3796" y="3.54076" width="33.6992" height="16.178" rx="8.08899" fill="white"/>
<rect x="28.3796" y="3.54076" width="33.6992" height="16.178" rx="8.08899" stroke="#0F9D58" stroke-width="0.759255"/>
<g filter="url(#filter0_d_9211_2099)">
<rect x="47" y="4.91309" width="13.433" height="13.433" rx="6.71649" fill="#0F9D58"/>
</g>
</g>
<defs>
<filter id="filter0_d_9211_2099" x="46.2407" y="4.73787" width="14.9521" height="14.9516" filterUnits="userSpaceOnUse" color-interpolation-filters="sRGB">
<feFlood flood-opacity="0" result="BackgroundImageFix"/>
<feColorMatrix in="SourceAlpha" type="matrix" values="0 0 0 0 0 0 0 0 0 0 0 0 0 0 0 0 0 0 127 0" result="hardAlpha"/>
<feOffset dy="0.584042"/>
<feGaussianBlur stdDeviation="0.379627"/>
<feComposite in2="hardAlpha" operator="out"/>
<feColorMatrix type="matrix" values="0 0 0 0 0 0 0 0 0 0 0 0 0 0 0 0 0 0 0.79 0"/>
<feBlend mode="normal" in2="BackgroundImageFix" result="effect1_dropShadow_9211_2099"/>
<feBlend mode="normal" in="SourceGraphic" in2="effect1_dropShadow_9211_2099" result="shape"/>
</filter>
</defs>
</svg>
