<svg width="32" height="26" viewBox="0 0 32 26" fill="none" xmlns="http://www.w3.org/2000/svg">
<path d="M14.4 21.125H17.6V19.5H19.2C20.08 19.5 20.8 18.7687 20.8 17.875V13C20.8 12.1062 20.08 11.375 19.2 11.375H14.4V9.75H20.8V6.5H17.6V4.875H14.4V6.5H12.8C11.92 6.5 11.2 7.23125 11.2 8.125V13C11.2 13.8938 11.92 14.625 12.8 14.625H17.6V16.25H11.2V19.5H14.4V21.125ZM28.8 0H3.2C1.424 0 0.016 1.44625 0.016 3.25L0 22.75C0 24.5537 1.424 26 3.2 26H28.8C30.576 26 32 24.5537 32 22.75V3.25C32 1.44625 30.576 0 28.8 0ZM28.8 22.75H3.2V3.25H28.8V22.75Z" fill="#0B2878"/>
</svg>
