<svg width="19" height="19" viewBox="0 0 19 19" fill="none" xmlns="http://www.w3.org/2000/svg">
<path d="M17.3333 0H1.33333C0.6 0 0 0.6 0 1.33333V17.3333C0 18.0667 0.6 18.6667 1.33333 18.6667H17.3333C18.0667 18.6667 18.6667 18.0667 18.6667 17.3333V1.33333C18.6667 0.6 18.0667 0 17.3333 0ZM9.33333 3.66667C10.9867 3.66667 12.3333 5.01333 12.3333 6.66667C12.3333 8.32 10.9867 9.66667 9.33333 9.66667C7.68 9.66667 6.33333 8.32 6.33333 6.66667C6.33333 5.01333 7.68 3.66667 9.33333 3.66667ZM15.3333 16H3.33333V15C3.33333 13 7.33333 12 9.33333 12C11.3333 12 15.3333 13 15.3333 15V16Z" fill="#0B2878"/>
</svg>
